<svg width="8" height="7" viewBox="0 0 8 7" fill="none" xmlns="http://www.w3.org/2000/svg">
<path d="M6.96803 3.49698H6.52002C6.48482 3.49698 6.45602 3.52578 6.45602 3.56098V6.12106H1.20785V0.872893H3.76793C3.80314 0.872893 3.83194 0.844092 3.83194 0.808891V0.360877C3.83194 0.325676 3.80314 0.296875 3.76793 0.296875H0.887844C0.74624 0.296875 0.631836 0.411279 0.631836 0.552883V6.44107C0.631836 6.58267 0.74624 6.69708 0.887844 6.69708H6.77603C6.91763 6.69708 7.03204 6.58267 7.03204 6.44107V3.56098C7.03204 3.52578 7.00324 3.49698 6.96803 3.49698Z" fill="white"/>
<path d="M2.58304 3.68018L2.56784 4.63141C2.56704 4.70261 2.62465 4.76101 2.69585 4.76101H2.69905L3.64308 4.73781C3.65908 4.73701 3.67508 4.73061 3.68628 4.71941L7.01358 1.39931C7.03838 1.37451 7.03838 1.33371 7.01358 1.30891L6.01915 0.315276C6.00635 0.302475 5.99035 0.296875 5.97355 0.296875C5.95675 0.296875 5.94075 0.303275 5.92795 0.315276L2.60144 3.63538C2.58989 3.64746 2.58332 3.66346 2.58304 3.68018ZM3.09106 3.86899L5.97355 0.992897L6.33516 1.35371L3.45107 4.2314L3.08546 4.2402L3.09106 3.86899Z" fill="white"/>
</svg>
