<svg width="16" height="13" viewBox="0 0 16 13" fill="none" xmlns="http://www.w3.org/2000/svg">
<path d="M15.6822 6.0404C13.9894 2.47433 11.4305 0.679688 8.0001 0.679688C4.56796 0.679688 2.01082 2.47433 0.31796 6.04219C0.250059 6.18597 0.214844 6.343 0.214844 6.50201C0.214844 6.66102 0.250059 6.81805 0.31796 6.96183C2.01082 10.5279 4.56975 12.3225 8.0001 12.3225C11.4322 12.3225 13.9894 10.5279 15.6822 6.96005C15.8197 6.67076 15.8197 6.33505 15.6822 6.0404ZM8.0001 11.0368C5.11975 11.0368 3.01082 9.57612 1.52332 6.50112C3.01082 3.42612 5.11975 1.9654 8.0001 1.9654C10.8805 1.9654 12.9894 3.42612 14.4769 6.50112C12.9912 9.57612 10.8822 11.0368 8.0001 11.0368ZM7.92867 3.35826C6.19296 3.35826 4.78582 4.7654 4.78582 6.50112C4.78582 8.23683 6.19296 9.64397 7.92867 9.64397C9.66439 9.64397 11.0715 8.23683 11.0715 6.50112C11.0715 4.7654 9.66439 3.35826 7.92867 3.35826ZM7.92867 8.50112C6.82332 8.50112 5.92867 7.60647 5.92867 6.50112C5.92867 5.39576 6.82332 4.50112 7.92867 4.50112C9.03403 4.50112 9.92868 5.39576 9.92868 6.50112C9.92868 7.60647 9.03403 8.50112 7.92867 8.50112Z" fill="black" fill-opacity="0.85"/>
</svg>
