<svg width="12" height="15" viewBox="0 0 12 15" fill="none" xmlns="http://www.w3.org/2000/svg">
<path d="M6.00033 10.8327C5.6467 10.8327 5.30757 10.6922 5.05752 10.4422C4.80747 10.1921 4.66699 9.85297 4.66699 9.49935C4.66699 8.75935 5.26033 8.16602 6.00033 8.16602C6.35395 8.16602 6.69309 8.30649 6.94313 8.55654C7.19318 8.80659 7.33366 9.14573 7.33366 9.49935C7.33366 9.85297 7.19318 10.1921 6.94313 10.4422C6.69309 10.6922 6.35395 10.8327 6.00033 10.8327ZM10.0003 12.8327V6.16602H2.00033V12.8327H10.0003ZM10.0003 4.83268C10.3539 4.83268 10.6931 4.97316 10.9431 5.22321C11.1932 5.47326 11.3337 5.81239 11.3337 6.16602V12.8327C11.3337 13.1863 11.1932 13.5254 10.9431 13.7755C10.6931 14.0255 10.3539 14.166 10.0003 14.166H2.00033C1.6467 14.166 1.30756 14.0255 1.05752 13.7755C0.807468 13.5254 0.666992 13.1863 0.666992 12.8327V6.16602C0.666992 5.42602 1.26033 4.83268 2.00033 4.83268H2.66699V3.49935C2.66699 2.61529 3.01818 1.76745 3.6433 1.14233C4.26842 0.517205 5.11627 0.166016 6.00033 0.166016C6.43807 0.166016 6.87152 0.252235 7.27594 0.419751C7.68036 0.587266 8.04782 0.832798 8.35735 1.14233C8.66688 1.45185 8.91241 1.81932 9.07992 2.22374C9.24744 2.62816 9.33366 3.06161 9.33366 3.49935V4.83268H10.0003ZM6.00033 1.49935C5.46989 1.49935 4.96118 1.71006 4.58611 2.08514C4.21104 2.46021 4.00033 2.96892 4.00033 3.49935V4.83268H8.00033V3.49935C8.00033 2.96892 7.78961 2.46021 7.41454 2.08514C7.03947 1.71006 6.53076 1.49935 6.00033 1.49935Z" fill="black"/>
</svg>
